<svg width="203" height="178" viewBox="0 0 203 178" fill="none" xmlns="http://www.w3.org/2000/svg">
<g clip-path="url(#clip0_955_501)">
<path d="M103.903 51.6226C103.791 51.6226 103.566 51.7905 103.229 52.1263C102.442 52.9097 101.089 53.3014 99.1785 53.3014C97.8298 53.3014 95.8588 52.6299 93.2737 51.2869C90.6846 49.9438 88.2118 47.9573 85.8515 45.3232C83.4912 42.6931 81.8574 39.5273 80.9583 35.834C80.9583 35.834 79.6175 50.1157 75.3906 59.8527C76.627 64.8931 78.4534 68.9222 80.874 71.944C83.2905 74.9658 85.9599 76.4808 88.8862 76.4808C91.8125 76.4808 94.2853 75.1657 96.6456 72.5316C99.0059 69.9015 100.889 66.7637 102.298 63.1264C103.702 59.489 104.405 56.3792 104.405 53.8051C104.405 52.3501 104.236 51.6226 103.899 51.6226H103.903Z" fill="#FFD04D"/>
<path d="M76.9394 4.28559C74.6874 1.82336 71.7651 0.420372 68.1685 0.0846134C66.9602 -0.0113176 65.8121 -0.023309 64.7123 0.0366479C61.4568 0.14457 58.0046 0.86805 55.4596 2.15512C51.5217 4.14569 48.2542 7.65917 47.1302 11.9121C46.7288 13.435 46.6004 15.0219 46.5843 16.5967C46.5281 22.3566 48.0655 28.0765 50.8273 33.1329C51.7706 25.3584 51.9111 18.8351 51.6943 16.4688C51.6381 15.8413 52.1038 15.2857 52.734 15.2297C53.3682 15.1698 53.9222 15.6374 53.9784 16.265C54.5243 22.2767 53.7536 28.6001 52.9829 34.5518C51.5659 45.5199 49.2216 57.6952 42.4136 66.7647C39.5033 70.6459 35.2082 73.6997 30.2427 74.1274C25.4538 75.3785 25.5702 77.9486 25.9877 79.2437C26.084 79.4955 26.1964 79.7593 26.3369 80.0311C28.8417 84.9556 33.5343 88.7329 38.8892 90.3237C41.6469 91.1431 44.5772 91.391 47.4273 90.9793C49.2778 90.7114 54.6528 89.7881 54.5645 87.19C54.4962 85.1874 49.2658 84.9236 47.8809 84.312C47.4795 84.1362 47.058 83.9123 46.8653 83.5206C46.6646 83.1169 46.765 82.6133 47.0058 82.2335C47.4514 81.53 48.2141 81.1423 48.9406 80.7986C51.9793 79.3476 55.0462 78.0166 57.8641 76.1779C63.0745 72.7763 67.4258 68.1956 70.9141 62.4318C71.7892 60.9848 72.6161 59.4659 73.3828 57.8711C77.6097 48.1341 78.9505 33.8523 78.9505 33.8523L80.1306 11.6803C80.243 9.21805 79.1753 6.75582 76.9273 4.28959L76.9394 4.28559Z" fill="#FFD04D"/>
<path d="M176.682 51.6226C176.57 51.6226 176.345 51.7905 176.008 52.1263C175.221 52.9097 173.869 53.3014 171.958 53.3014C170.609 53.3014 168.638 52.6299 166.053 51.2869C163.464 49.9438 160.991 47.9573 158.631 45.3232C156.27 42.6931 154.637 39.5273 153.738 35.834C153.738 35.834 152.397 50.1157 148.17 59.8527C149.406 64.8931 151.233 68.9222 153.653 71.944C156.07 74.9658 158.739 76.4808 161.666 76.4808C164.592 76.4808 167.065 75.1657 169.425 72.5316C171.785 69.9015 173.668 66.7637 175.077 63.1264C176.482 59.489 177.184 56.3792 177.184 53.8051C177.184 52.3501 177.016 51.6226 176.678 51.6226H176.682Z" fill="#FFD04D"/>
<path d="M149.725 4.28559C147.473 1.82336 144.55 0.420372 140.954 0.0846134C139.745 -0.0113176 138.597 -0.023309 137.497 0.0366479C134.242 0.14457 130.79 0.86805 128.245 2.15512C124.307 4.14569 121.039 7.65917 119.915 11.9121C119.514 13.435 119.386 15.0219 119.369 16.5967C119.313 22.3566 120.851 28.0765 123.612 33.1329C124.556 25.3584 124.696 18.8351 124.48 16.4688C124.423 15.8413 124.889 15.2857 125.519 15.2297C126.153 15.1698 126.707 15.6374 126.764 16.265C127.309 22.2767 126.539 28.6001 125.768 34.5518C124.351 45.5199 122.007 57.6952 115.199 66.7647C112.289 70.6459 107.993 73.6997 103.028 74.1274C98.2389 75.3785 98.3554 77.9486 98.7728 79.2437C98.8692 79.4955 98.9816 79.7593 99.1221 80.0311C101.627 84.9556 106.319 88.7329 111.674 90.3237C114.432 91.1431 117.362 91.391 120.212 90.9793C122.063 90.7114 127.438 89.7881 127.35 87.19C127.281 85.1874 122.051 84.9236 120.666 84.312C120.265 84.1362 119.843 83.9123 119.65 83.5206C119.45 83.1169 119.55 82.6133 119.791 82.2335C120.237 81.53 120.999 81.1423 121.726 80.7986C124.765 79.3476 127.831 78.0166 130.649 76.1779C135.86 72.7763 140.211 68.1956 143.699 62.4318C144.574 60.9848 145.401 59.4659 146.168 57.8711C150.395 48.1341 151.736 33.8523 151.736 33.8523L152.916 11.6803C153.028 9.21805 151.96 6.75582 149.712 4.28959L149.725 4.28559Z" fill="#FFD04D"/>
<path d="M1.16801 141.811C1.94676 140.987 2.89811 140.571 4.01806 140.571H57.0371C59.1325 140.571 60.1802 140.04 60.1802 138.969C60.1802 138.385 59.8149 137.901 59.0843 137.514C59.0843 137.466 59.1566 137.442 59.3051 137.442C60.5214 137.442 61.4245 138.121 62.0106 139.48C62.4 140.452 62.5967 141.787 62.5967 143.485C62.5967 145.912 62.1471 147.61 61.2439 148.582C60.3407 149.553 58.6468 150.037 56.162 150.037H39.5634V158.047C39.5634 159.358 39.0376 160.437 37.9899 161.289C36.9422 162.14 35.4891 162.564 33.6385 162.564C31.6877 162.564 30.1783 162.128 29.1025 161.253C28.0308 160.377 27.4929 159.262 27.4929 157.903V150.041H4.02208C2.90213 150.041 1.95077 149.629 1.17203 148.802C0.39328 147.978 0.00390625 146.811 0.00390625 145.308C0.00390625 143.805 0.39328 142.638 1.17203 141.815L1.16801 141.811ZM6.0693 118.911C5.29055 118.112 4.90118 116.956 4.90118 115.453C4.90118 113.951 5.31464 112.795 6.14557 111.996C6.97249 111.197 7.89976 110.793 8.92337 110.793H48.7037C51.4815 110.793 53.336 110.769 54.2633 110.721C54.8494 110.721 55.1665 110.501 55.2146 110.065C55.2628 109.969 55.2749 109.858 55.2508 109.738C55.2267 109.618 55.2146 109.53 55.2146 109.482C55.2146 109.386 55.2387 109.338 55.2869 109.338C55.4314 109.338 55.6401 109.498 55.9091 109.81C56.178 110.125 56.4309 110.501 56.6758 110.937C57.31 112.056 57.6272 113.267 57.6272 114.578C57.6272 116.373 57.2257 117.744 56.4189 118.691C55.612 119.638 54.0425 120.11 51.7023 120.11H37.2232C37.175 120.646 37.0265 121.493 36.7856 122.66L36.3481 124.263C38.299 125.622 41.0166 126.689 44.5009 127.469C47.9851 128.244 51.068 128.66 53.7495 128.708C54.5282 128.708 55.0661 128.684 55.3592 128.636C56.0897 128.54 56.5754 128.32 56.8203 127.98C56.9166 127.885 56.9889 127.773 57.0411 127.653C57.0893 127.533 57.1374 127.473 57.1856 127.473C57.3783 127.473 57.6231 127.813 57.9162 128.492C58.3055 129.415 58.5022 130.483 58.5022 131.698C58.5022 132.913 58.3577 133.844 58.0647 134.648C57.7717 135.447 57.1013 136.115 56.0536 136.65C55.0059 137.186 53.4324 137.45 51.337 137.45C49.924 137.45 48.4588 137.282 46.9495 136.938C44.6574 136.454 42.1124 135.495 39.3065 134.064C36.5006 132.633 34.3932 131.238 32.9802 129.875C30.7363 132.205 27.8622 134.052 24.3498 135.407C20.8414 136.766 17.0842 137.446 13.0901 137.446C11.9661 137.446 11.1392 137.422 10.6053 137.374C7.63081 137.13 5.41499 136.354 3.94982 135.043C2.97438 134.168 2.48867 133.149 2.48867 131.986C2.48867 131.306 2.58501 130.723 2.7817 130.239C2.97438 129.755 3.12291 129.535 3.21925 129.583C3.21925 129.631 3.23129 130.007 3.25537 130.711C3.27946 131.414 4.55998 131.766 7.09291 131.766C9.62584 131.766 12.1146 131.282 14.6997 130.311C17.2849 129.34 19.4886 127.992 21.3191 126.27C23.1455 124.547 24.2815 122.64 24.7191 120.554L24.7913 120.118H8.77484C7.75123 120.118 6.84805 119.718 6.0693 118.915V118.911ZM6.21381 158.271C6.21381 156.96 6.77178 155.928 7.89574 155.177C9.01569 154.425 10.5049 154.05 12.3555 154.05C14.206 154.05 15.6591 154.425 16.7068 155.177C17.7545 155.928 18.2804 156.96 18.2804 158.271V162.64C18.2804 164.095 18.6818 165.214 19.4886 165.989C20.2915 166.765 21.5238 167.3 23.1817 167.592C24.9358 167.932 27.2038 168.128 29.9816 168.176L33.2733 168.248C37.0747 168.248 40.6593 168.092 44.0232 167.776C47.387 167.46 49.9722 167.012 51.7745 166.429C53.043 165.945 53.906 165.494 54.3717 165.082C54.8333 164.67 55.0661 164.099 55.0661 163.371C55.0661 162.739 54.749 162.352 54.1148 162.208L53.894 162.136C53.894 161.992 54.1148 161.916 54.5523 161.916C55.2829 161.916 55.9653 162.136 56.5995 162.572C57.6231 163.299 58.3417 164.174 58.7551 165.194C59.1686 166.213 59.3773 167.548 59.3773 169.199C59.3773 171.189 58.719 172.776 57.4024 173.967C56.0857 175.155 53.8659 175.97 50.7469 176.406C46.0182 176.937 40.1656 177.205 33.197 177.205C28.7132 177.205 24.5906 177.061 20.8374 176.769C15.912 176.43 12.2431 175.25 9.83057 173.236C7.41806 171.221 6.2098 168.056 6.2098 163.735V158.275L6.21381 158.271Z" fill="#FFD04D"/>
<path d="M104.644 164.674L100.478 164.602C98.7234 164.602 95.7007 164.702 91.4096 164.894C87.5078 165.09 84.9508 165.186 83.7305 165.186C79.4394 165.186 76.3565 164.302 74.4819 162.528C72.6033 160.757 71.668 157.831 71.668 153.754V117.128C71.668 115.917 72.2781 114.906 73.4944 114.107C74.7107 113.307 76.1759 112.903 77.8819 112.903C79.5879 112.903 81.0009 113.303 82.1249 114.107C83.2448 114.906 83.8068 115.917 83.8068 117.128V131.474H96.3831C96.3831 128.852 96.335 124.095 96.2386 117.2C96.2386 115.989 96.8488 114.978 98.0651 114.178C99.2814 113.379 100.747 112.975 102.453 112.975C104.159 112.975 105.572 113.375 106.696 114.178C107.815 114.978 108.377 115.989 108.377 117.2C108.474 119.047 108.522 120.722 108.522 122.225C108.522 131.642 107.815 142.274 106.402 154.118C107.181 154.41 107.767 154.893 108.157 155.573C108.546 156.156 108.839 156.932 109.036 157.903C109.228 158.874 109.329 159.846 109.329 160.817C109.329 161.788 109.281 162.396 109.184 162.784C108.988 163.415 108.695 163.903 108.305 164.238C107.916 164.578 107.502 164.746 107.061 164.746C106.134 164.746 105.331 164.722 104.648 164.674H104.644ZM84.0236 154.733C84.1681 155.293 84.5374 155.717 85.1194 156.008C85.7055 156.3 86.6047 156.444 87.825 156.444C88.8486 156.444 91.3574 156.152 95.3555 155.569C95.7449 151.248 96.0379 146.271 96.2346 140.639H83.8028V152.291C83.8028 153.358 83.875 154.174 84.0236 154.729V154.733ZM114.371 109.985C115.101 109.402 115.956 108.942 116.932 108.602C118.2 108.119 119.83 107.875 121.833 107.875C123.836 107.875 125.389 108.143 126.658 108.674C128.167 109.306 129.143 110.265 129.584 111.552C130.022 112.839 130.243 114.718 130.243 117.196V171.301C130.243 172.564 129.741 173.644 128.745 174.543C127.746 175.442 126.269 175.89 124.322 175.89C122.375 175.89 120.861 175.426 119.786 174.507C118.714 173.584 118.176 172.469 118.176 171.157V115.014C118.176 113.559 118.04 112.416 117.775 111.592C117.506 110.769 116.936 110.353 116.057 110.353C115.567 110.353 115.093 110.549 114.632 110.937C114.166 111.325 113.837 111.736 113.644 112.176C113.5 112.372 113.351 112.468 113.206 112.468C113.11 112.468 113.034 112.42 112.986 112.324C112.938 112.228 112.938 112.08 112.986 111.888C113.178 111.209 113.644 110.577 114.375 109.993L114.371 109.985Z" fill="#FFD04D"/>
<path d="M141.57 147.2C140.792 146.376 140.402 145.209 140.402 143.706C140.402 142.203 140.792 141.036 141.57 140.213C142.349 139.389 143.301 138.974 144.421 138.974H197.44C199.535 138.974 200.583 138.442 200.583 137.371C200.583 136.787 200.217 136.304 199.487 135.916C199.487 135.868 199.559 135.844 199.708 135.844C200.924 135.844 201.827 136.523 202.413 137.882C202.802 138.854 202.999 140.189 202.999 141.887C202.999 144.314 202.55 146.013 201.646 146.984C200.743 147.955 199.049 148.439 196.564 148.439H177.842V152.88C178.669 153.463 179.159 154.287 179.304 155.354C182.13 155.258 185.008 155.526 187.934 156.153C190.86 156.785 193.321 157.912 195.32 159.539C197.319 161.166 198.319 163.316 198.319 165.982C198.319 170.207 196.187 173.265 191.92 175.156C187.653 177.05 181.403 177.994 173.162 177.994C164.339 177.994 157.575 176.89 152.87 174.68C148.166 172.47 145.813 169.232 145.813 164.959C145.813 161.174 147.387 158.164 150.53 155.929C153.673 153.699 158.755 152.36 165.776 151.924V148.431H144.425C143.305 148.431 142.353 148.019 141.574 147.192L141.57 147.2ZM143.18 128.633C143.373 128.149 143.521 127.93 143.618 127.978C143.618 128.025 143.63 128.377 143.654 129.033C143.678 129.688 144.689 130.064 146.689 130.16C149.221 130.304 151.843 129.952 154.548 129.105C157.254 128.257 159.582 127.042 161.533 125.463C163.484 123.884 164.676 122.102 165.118 120.111C165.214 119.723 165.262 119.48 165.262 119.384H149.173C148.15 119.384 147.246 118.984 146.468 118.181C145.689 117.381 145.3 116.226 145.3 114.723C145.3 113.22 145.713 112.065 146.544 111.266C147.371 110.466 148.298 110.062 149.322 110.062H189.102C191.88 110.062 193.734 110.038 194.662 109.99C195.248 109.99 195.565 109.771 195.613 109.335C195.661 109.239 195.673 109.127 195.649 109.007C195.625 108.887 195.613 108.799 195.613 108.751C195.613 108.655 195.637 108.607 195.685 108.607C195.83 108.607 196.039 108.763 196.308 109.079C196.576 109.395 196.829 109.771 197.074 110.206C197.708 111.321 198.026 112.537 198.026 113.848C198.026 115.646 197.624 117.013 196.817 117.961C196.01 118.908 194.441 119.38 192.101 119.38H177.622C177.573 119.867 177.501 120.351 177.401 120.835C177.305 121.318 177.204 121.782 177.108 122.218C177.06 122.509 176.935 122.945 176.743 123.529C178.693 124.84 181.323 125.775 184.638 126.331C187.954 126.89 191.121 127.194 194.144 127.242C194.923 127.242 195.461 127.218 195.754 127.17C196.484 127.074 196.97 126.854 197.215 126.515C197.311 126.419 197.383 126.307 197.436 126.187C197.484 126.067 197.532 126.003 197.58 126.003C197.773 126.003 198.018 126.343 198.311 127.022C198.7 127.946 198.897 129.013 198.897 130.228C198.897 131.975 198.483 133.37 197.652 134.417C196.821 135.46 195.019 135.984 192.241 135.984C190.68 135.984 189.046 135.816 187.34 135.472C184.951 135.036 182.33 134.173 179.48 132.886C176.63 131.599 174.543 130.3 173.226 128.989C171.079 131.123 168.265 132.802 164.78 134.013C161.296 135.228 157.579 135.832 153.629 135.832C152.457 135.832 151.582 135.808 150.996 135.76C148.021 135.516 145.805 134.741 144.34 133.43C143.365 132.554 142.879 131.535 142.879 130.372C142.879 129.692 142.975 129.109 143.172 128.625L143.18 128.633ZM162.448 167.917C165.495 168.62 169.116 168.972 173.306 168.972C177.108 168.972 180.608 168.596 183.799 167.845C186.991 167.093 188.588 165.746 188.588 163.804C188.588 162.249 187.721 160.954 185.991 159.907C184.261 158.863 181.957 158.244 179.079 158.048C178.493 159.943 177.276 160.886 175.422 160.886C169.473 160.886 165.061 161.118 162.187 161.577C159.309 162.041 157.872 163.024 157.872 164.527C157.872 166.03 159.393 167.209 162.444 167.913L162.448 167.917Z" fill="#FFD04D"/>
</g>
<defs>
<clipPath id="clip0_955_501">
<rect width="203" height="178" fill="white"/>
</clipPath>
</defs>
</svg>
