<svg width="130" height="23" viewBox="0 0 130 23" fill="none" xmlns="http://www.w3.org/2000/svg">
<g clip-path="url(#clip0_961_6)">
<path d="M19.0217 12.3692C18.9943 12.3692 18.9395 12.4094 18.8574 12.4898C18.6657 12.6776 18.3362 12.7714 17.8708 12.7714C17.5422 12.7714 17.0621 12.6105 16.4324 12.2887C15.8017 11.9669 15.1993 11.4909 14.6244 10.8597C14.0494 10.2295 13.6514 9.47092 13.4324 8.58594C13.4324 8.58594 13.1058 12.0081 12.0762 14.3412C12.3773 15.549 12.8223 16.5144 13.4119 17.2385C14.0005 17.9626 14.6508 18.3256 15.3636 18.3256C16.0764 18.3256 16.6788 18.0105 17.2537 17.3793C17.8287 16.7491 18.2873 15.9972 18.6305 15.1256C18.9728 14.2541 19.1439 13.5089 19.1439 12.8921C19.1439 12.5435 19.1028 12.3692 19.0207 12.3692H19.0217Z" fill="#45474B"/>
<path d="M12.4546 1.0269C11.9061 0.436907 11.1942 0.100728 10.3181 0.0202747C10.0237 -0.00271188 9.74409 -0.00558521 9.47616 0.00878143C8.68315 0.0346414 7.84222 0.207999 7.22228 0.516403C6.26303 0.993375 5.46709 1.83526 5.1933 2.85433C5.09551 3.21925 5.06422 3.59948 5.06031 3.97685C5.04662 5.357 5.42113 6.72758 6.09387 7.93917C6.32366 6.07629 6.35788 4.5132 6.30508 3.9462C6.29139 3.79583 6.40482 3.6627 6.55834 3.64929C6.71283 3.63492 6.84777 3.74698 6.86146 3.89735C6.99445 5.33785 6.8067 6.85305 6.61896 8.27918C6.27379 10.9073 5.70274 13.8247 4.04435 15.9979C3.33543 16.9279 2.28916 17.6596 1.07959 17.7621C-0.0869536 18.0619 -0.0585967 18.6778 0.043097 18.9881C0.0665648 19.0484 0.0939439 19.1116 0.128168 19.1768C0.73833 20.3567 1.88141 21.2618 3.18582 21.643C3.85759 21.8394 4.5714 21.8988 5.26565 21.8001C5.71643 21.7359 7.02574 21.5147 7.00422 20.8921C6.9876 20.4123 5.7135 20.3491 5.37615 20.2025C5.27837 20.1604 5.17569 20.1068 5.12876 20.0129C5.07987 19.9162 5.10431 19.7955 5.16298 19.7045C5.27152 19.5359 5.45731 19.443 5.63429 19.3606C6.37451 19.013 7.12156 18.694 7.808 18.2535C9.07721 17.4384 10.1372 16.3408 10.9869 14.9597C11.2001 14.613 11.4015 14.249 11.5883 13.8668C12.6179 11.5337 12.9445 8.11157 12.9445 8.11157L13.232 2.79878C13.2594 2.20879 12.9993 1.6188 12.4517 1.02786L12.4546 1.0269Z" fill="#45474B"/>
<path d="M36.7521 12.3692C36.7247 12.3692 36.67 12.4094 36.5878 12.4898C36.3962 12.6776 36.0667 12.7714 35.6012 12.7714C35.2727 12.7714 34.7926 12.6105 34.1628 12.2887C33.5322 11.9669 32.9298 11.4909 32.3549 10.8597C31.7799 10.2295 31.3819 9.47092 31.1629 8.58594C31.1629 8.58594 30.8363 12.0081 29.8066 14.3412C30.1078 15.549 30.5527 16.5144 31.1423 17.2385C31.731 17.9626 32.3813 18.3256 33.0941 18.3256C33.8069 18.3256 34.4093 18.0105 34.9842 17.3793C35.5592 16.7491 36.0178 15.9972 36.361 15.1256C36.7032 14.2541 36.8744 13.5089 36.8744 12.8921C36.8744 12.5435 36.8333 12.3692 36.7511 12.3692H36.7521Z" fill="#45474B"/>
<path d="M30.1851 1.0269C29.6365 0.436908 28.9247 0.100728 28.0485 0.0202747C27.7542 -0.00271189 27.4746 -0.00558521 27.2066 0.00878143C26.4136 0.0346414 25.5727 0.207999 24.9527 0.516403C23.9935 0.993375 23.1976 1.83526 22.9238 2.85433C22.826 3.21925 22.7947 3.59948 22.7908 3.97685C22.7771 5.357 23.1516 6.72758 23.8243 7.93917C24.0541 6.07629 24.0884 4.5132 24.0355 3.9462C24.0219 3.79583 24.1353 3.6627 24.2888 3.64929C24.4433 3.63492 24.5782 3.74698 24.5919 3.89735C24.7249 5.33785 24.5372 6.85305 24.3494 8.27918C24.0043 10.9073 23.4332 13.8247 21.7748 15.9979C21.0659 16.9279 20.0196 17.6596 18.8101 17.7621C17.6435 18.0619 17.6719 18.6778 17.7736 18.9881C17.797 19.0484 17.8244 19.1116 17.8586 19.1768C18.4688 20.3567 19.6119 21.2618 20.9163 21.643C21.5881 21.8394 22.3019 21.8988 22.9961 21.8001C23.4469 21.7359 24.7562 21.5147 24.7347 20.8921C24.7181 20.4123 23.444 20.3491 23.1066 20.2025C23.0088 20.1604 22.9062 20.1068 22.8592 20.0129C22.8103 19.9162 22.8348 19.7955 22.8935 19.7045C23.002 19.5359 23.1878 19.443 23.3648 19.3606C24.105 19.013 24.852 18.694 25.5385 18.2535C26.8077 17.4384 27.8676 16.3408 28.7174 14.9597C28.9305 14.613 29.132 14.249 29.3187 13.8668C30.3484 11.5337 30.675 8.11157 30.675 8.11157L30.9625 2.79878C30.9898 2.20879 30.7297 1.6188 30.1822 1.02786L30.1851 1.0269Z" fill="#45474B"/>
</g>
<g clip-path="url(#clip1_961_6)">
<path d="M62.5066 16.5814C62.4237 17.0003 62.0776 17.3262 61.6433 17.389C61.491 17.4178 61.3093 17.4335 61.0968 17.4335H54.1293V14.1351C54.1293 13.8144 54.0251 13.5513 53.818 13.3484L54.1801 13.1966C54.871 12.8759 55.5017 12.4021 56.071 11.7764C56.6402 11.1508 57.1159 10.4322 57.4955 9.61938C57.6505 10.7189 58.022 11.6495 58.6099 12.41C59.1966 13.1717 59.8874 13.5513 60.6825 13.5513C61.3213 13.5513 61.8224 13.3065 62.1845 12.8157C62.5467 12.3249 62.7284 11.7503 62.7284 11.0906C62.7284 10.7699 62.6937 10.499 62.6242 10.2791C62.5547 10.0422 62.5026 9.92435 62.4692 9.92435L62.3916 10.0513C62.3222 10.1534 62.0723 10.2031 61.6407 10.2031C61.1569 10.1861 60.6692 9.99634 60.1774 9.63246C59.6856 9.26859 59.266 8.81702 58.9213 8.27514C58.5752 7.73456 58.36 7.17566 58.2732 6.60105C58.2906 6.55 58.2986 6.46623 58.2986 6.34712L58.4803 3.25157C58.5151 2.67697 58.3413 2.23325 57.9618 1.91911C57.5823 1.60629 57.0037 1.44922 56.226 1.44922C55.6901 1.44922 55.2505 1.55524 54.9044 1.76597C54.5583 1.97801 54.3779 2.27775 54.3605 2.6665L54.1534 6.47278C54.0839 7.77514 53.8554 9.0055 53.4665 10.1652C53.0777 11.3236 52.5899 12.2071 52.0033 12.817C51.3124 12.817 50.7819 12.9361 50.4104 13.1717C50.0389 13.4086 49.8532 13.7476 49.8532 14.1861V17.4335H42.263C41.9009 17.4335 41.5802 17.5906 41.3049 17.9034C41.0283 18.2162 40.8906 18.6181 40.8906 19.1089C40.8906 19.5997 41.0336 20.0356 41.3182 20.3654C41.6029 20.6953 41.9356 20.8602 42.3151 20.8602H60.7841C61.6647 20.8602 62.2647 20.6665 62.5841 20.2764C62.9035 19.8877 63.0638 19.2791 63.0638 18.4492C63.0638 17.8916 62.9943 17.4348 62.8567 17.0788C62.7631 16.8641 62.6455 16.6992 62.5052 16.5814H62.5066Z" fill="#45474B"/>
<path d="M106.981 0.302152C106.559 0.126759 106.022 0.0390625 105.372 0.0390625C104.723 0.0390625 104.161 0.118905 103.738 0.277282C103.413 0.388539 103.128 0.540371 102.884 0.731471C102.877 0.736706 102.872 0.741942 102.865 0.747178C102.973 0.698748 103.094 0.67257 103.219 0.67257C103.495 0.67257 103.758 0.804769 103.92 1.02336C104.121 1.29692 104.116 1.66341 104.135 1.9854C104.204 3.19613 104.152 4.40817 104.152 5.62021V20.7956C104.152 21.2249 104.331 21.5914 104.688 21.8938C105.045 22.1961 105.55 22.348 106.199 22.348C106.849 22.348 107.342 22.2001 107.675 21.9056C108.007 21.6111 108.174 21.2563 108.174 20.8427V3.09665C108.174 2.28514 108.101 1.66733 107.955 1.24587C107.808 0.824403 107.483 0.508958 106.98 0.302152H106.981Z" fill="#45474B"/>
<path d="M99.3978 1.70074C98.902 1.58949 98.4744 1.5332 98.1176 1.5332H90.8268C90.2909 1.5332 89.8713 1.66409 89.5707 1.92718C89.27 2.19027 89.119 2.58425 89.119 3.10912C89.119 3.63399 89.2647 4.04106 89.5573 4.32771C89.85 4.61435 90.2722 4.75702 90.8255 4.75702H96.4098C96.7025 4.75702 96.9176 4.82509 97.0566 4.9599C97.1943 5.09603 97.2637 5.32247 97.2637 5.64053C97.2637 7.34472 97.0032 8.91671 96.4833 10.3578C95.9635 11.7989 95.2807 13.0411 94.4348 14.0843C93.5889 15.1274 92.6549 15.9429 91.6312 16.5319C90.9177 16.9429 90.168 17.2544 89.3275 17.2754C89.111 17.2806 88.9239 17.2596 88.7395 17.1392C88.7301 17.1327 88.7208 17.1261 88.7114 17.1196C88.5765 17.0201 88.4736 16.8814 88.4228 16.7191C88.3987 16.8238 88.3867 16.9363 88.3867 17.0581C88.3867 17.1863 88.3947 17.2819 88.4108 17.3447C88.4602 17.5685 88.5725 17.7662 88.7515 17.9416C88.9306 18.117 89.1658 18.2518 89.4584 18.3473C89.7832 18.4586 90.1573 18.5149 90.5796 18.5149C91.1315 18.5149 91.7823 18.4115 92.5306 18.2047C94.221 17.7112 95.7163 16.8591 97.0179 15.6484C98.3181 14.439 99.3497 12.9102 100.114 11.0633C100.878 9.21645 101.301 7.11436 101.382 4.75833C101.43 3.72299 101.171 2.91933 100.602 2.34603C100.293 2.02797 99.8909 1.81331 99.3951 1.70074H99.3978Z" fill="#45474B"/>
<path d="M121.216 1.75738C120.72 1.64613 120.293 1.58984 119.936 1.58984H112.645C112.109 1.58984 111.69 1.72073 111.389 1.98382C111.088 2.24691 110.937 2.64089 110.937 3.16576C110.937 3.69063 111.084 4.0977 111.376 4.38435C111.668 4.671 112.091 4.81367 112.644 4.81367H118.228C118.521 4.81367 118.736 4.88173 118.875 5.01655C119.013 5.15267 119.082 5.37911 119.082 5.69717C119.082 7.40136 118.822 8.97335 118.302 10.4145C117.782 11.8555 117.099 13.0977 116.253 14.1409C115.407 15.1841 114.473 15.9995 113.45 16.5885C113.091 16.8124 112.709 16.9904 112.303 17.1265C111.916 17.2548 111.509 17.3333 111.099 17.3241C110.74 17.315 110.415 17.2037 110.221 16.8883C110.212 16.9603 110.205 17.0362 110.205 17.116C110.205 17.2443 110.213 17.3398 110.229 17.4027C110.279 17.6265 110.391 17.8241 110.57 17.9995C110.749 18.1749 110.984 18.3097 111.277 18.4053C111.602 18.5165 111.976 18.5728 112.398 18.5728C112.95 18.5728 113.601 18.4694 114.349 18.2626C116.039 17.7692 117.535 16.9171 118.836 15.7063C120.136 14.4969 121.169 12.9681 121.932 11.1213C122.697 9.2744 123.119 7.1723 123.201 4.81628C123.249 3.78094 122.989 2.97728 122.42 2.40398C122.111 2.08592 121.709 1.87126 121.213 1.75869L121.216 1.75738Z" fill="#45474B"/>
<path d="M129.78 1.24392C129.633 0.82245 129.308 0.507005 128.804 0.300198C128.382 0.124806 127.845 0.0371094 127.195 0.0371094C126.546 0.0371094 125.985 0.116952 125.561 0.275329C125.236 0.386586 124.952 0.538418 124.707 0.729518C124.668 0.759622 124.632 0.791036 124.598 0.82245C124.722 0.760931 124.861 0.725591 125.009 0.725591C125.22 0.725591 125.413 0.796272 125.566 0.914073C125.695 0.978209 125.786 1.09208 125.84 1.2557V1.25962C125.883 1.35517 125.909 1.45858 125.914 1.56721C125.953 1.79234 125.973 2.06198 125.973 2.37742V20.7923C125.973 21.2217 126.152 21.5882 126.509 21.8905C126.865 22.1929 127.37 22.3447 128.02 22.3447C128.669 22.3447 129.162 22.1968 129.495 21.9023C129.828 21.6078 129.995 21.2531 129.995 20.8395V3.09601C129.995 2.28449 129.921 1.66669 129.776 1.24522L129.78 1.24392Z" fill="#45474B"/>
<path d="M70.1944 12.4202C71.2995 12.3573 72.2831 12.3246 73.145 12.3246C73.5018 12.3246 73.9895 12.356 74.6082 12.4202L75.267 12.4686C75.4461 12.4686 75.6038 12.4123 75.7427 12.3011C75.8804 12.1898 75.9659 12.0301 75.9993 11.8233C76.0314 11.5694 76.0474 11.3456 76.0474 11.1545C76.0474 10.4856 75.9338 9.9843 75.7067 9.64923C75.4461 9.26703 75.0318 9.07593 74.4626 9.07593C74.0884 9.07593 73.479 9.14006 72.6332 9.26703C72.4862 9.28273 72.2309 9.31546 71.8648 9.36258C71.4986 9.4097 71.21 9.43457 70.9989 9.43457C70.5432 9.43457 70.2425 9.33116 70.0969 9.12436C69.9512 8.91755 69.8777 8.55891 69.8777 8.04975V4.7775H73.3641C74.1445 4.7775 74.6683 4.61388 74.9369 4.28797C75.2055 3.96205 75.3392 3.49608 75.3392 2.89137C75.3392 2.46205 75.2336 2.04713 75.0225 1.64922C74.941 1.50655 74.8554 1.38221 74.7659 1.27881C74.6764 1.1754 74.6069 1.12305 74.5588 1.12305C74.5427 1.12305 74.5347 1.13875 74.5347 1.17017C74.5347 1.18587 74.5387 1.21467 74.5467 1.25394C74.5548 1.2932 74.5508 1.32985 74.5347 1.36127C74.5187 1.50525 74.4131 1.57593 74.218 1.57593C73.9093 1.59163 73.292 1.59949 72.3646 1.59949H67.9027C67.2693 1.59949 66.7641 1.76703 66.3913 2.1008C66.0172 2.43457 65.8301 2.86519 65.8301 3.39006V8.14268C65.8301 9.28928 65.9276 10.1217 66.1227 10.6388C66.3178 11.1558 66.6345 11.5668 67.0742 11.8691C67.61 12.2513 68.3984 12.4424 69.4394 12.4424C69.7641 12.4424 70.0167 12.4346 70.1958 12.4189L70.1944 12.4202Z" fill="#45474B"/>
<path d="M85.2396 0.263089C84.8333 0.0876963 84.3296 0 83.7282 0C83.0948 0 82.5817 0.0798429 82.1915 0.23822C81.9376 0.329843 81.7131 0.448953 81.5153 0.594241C81.5768 0.579843 81.6396 0.57199 81.7051 0.57199C81.9336 0.57199 82.1554 0.668848 82.3077 0.835079C82.4962 1.04058 82.5109 1.28927 82.5256 1.55105C82.5376 1.76309 82.5496 1.97513 82.555 2.18848C82.567 2.67932 82.5576 3.17147 82.5576 3.6623V4.94372H80.8512V3.62958C80.8512 2.81806 80.7817 2.20026 80.644 1.7788C80.5064 1.35733 80.2004 1.04188 79.73 0.835079C79.3238 0.659686 78.82 0.57199 78.2187 0.57199C77.5853 0.57199 77.0721 0.651832 76.6819 0.810209C76.4521 0.89267 76.2463 0.997382 76.0605 1.12435C76.0859 1.12173 76.1127 1.12042 76.1394 1.12042C76.5403 1.12042 76.873 1.40576 76.9385 1.78141C77.0107 2.0445 77.0467 2.42147 77.0467 2.9123V11.9162C77.0467 12.3298 77.2058 12.6924 77.5225 13.0026C77.8392 13.3128 78.2988 13.4686 78.9002 13.4686C79.5336 13.4686 80.0173 13.322 80.3514 13.0262C80.6841 12.7317 80.8512 12.3783 80.8512 11.9634V7.95026H82.5576V13.4437C82.5576 13.8573 82.7207 14.2199 83.0454 14.5301C83.3701 14.8403 83.8338 14.9961 84.4351 14.9961C85.0685 14.9961 85.5483 14.8495 85.8743 14.5537C86.199 14.2592 86.3621 13.9045 86.3621 13.4908V3.05759C86.3621 2.24607 86.2926 1.62827 86.1549 1.20681C86.0173 0.78534 85.7113 0.469895 85.2409 0.263089H85.2396Z" fill="#45474B"/>
<path d="M84.2023 16.2777C81.2277 14.7895 77.5997 15.4976 74.5476 16.3798C73.8861 16.5709 73.1658 16.8445 72.8692 17.4544C74.3912 16.5722 76.1819 16.2241 77.9498 16.1377C78.9787 16.0866 80.0264 16.122 81.0072 16.4322C81.4576 16.5748 81.9025 16.783 82.2192 17.1285C82.5359 17.4741 82.7016 17.978 82.5453 18.4165C82.413 18.7869 82.0803 19.0526 81.7328 19.2463C81.0273 19.639 80.2148 19.8104 79.409 19.8995C78.1422 20.0382 76.8607 19.9845 75.5899 19.8851C74.8856 19.8301 74.128 19.7843 73.4678 19.5133C72.9667 19.3078 72.5137 18.9557 72.2759 18.478C72.0514 18.0277 72.0594 17.5133 72.2959 17.0722C72.5458 16.605 73.0041 16.3144 73.4718 16.0735C74.14 15.7306 74.875 15.533 75.6059 15.3628C76.4745 15.1599 77.3591 15.0238 78.2464 14.9309C78.2852 14.9269 78.8237 14.8471 78.8371 14.8785C78.7609 14.6979 78.5899 14.5474 78.4055 14.4557C78.1128 14.3105 77.7814 14.2633 77.4553 14.2293C75.1088 13.9806 72.0995 14.1089 70.1097 15.4806C68.9311 16.2921 68.3418 17.3118 68.3418 18.5382C68.3418 19.3497 68.6425 20.0906 69.2438 20.7594C69.8451 21.4283 70.8046 21.9688 72.1208 22.3837C73.4371 22.7974 75.1195 23.0042 77.168 23.0042C80.1266 23.0042 82.3288 22.6298 83.776 21.8811C85.2232 21.1324 85.9462 20.105 85.9462 18.8C85.9462 17.7018 85.3649 16.8615 84.2023 16.2803V16.2777Z" fill="#45474B"/>
<path d="M52.994 9.09581C52.8523 9.00288 52.5998 9.18089 52.4728 9.21754C52.3325 9.25942 52.1802 9.24241 52.0372 9.20969C51.0871 8.9911 50.2466 8.15733 49.8109 7.33141C49.6947 7.11152 49.5998 6.87984 49.5637 6.63508C49.5303 6.40864 49.5477 6.17827 49.5637 5.95052C49.6051 5.41649 49.6466 4.88246 49.688 4.34843C49.7401 3.66387 49.7802 2.92435 49.3967 2.34974C49.1348 1.95576 48.6965 1.69267 48.2301 1.58141C47.7637 1.47016 47.272 1.50157 46.8043 1.6089C46.4087 1.69921 46.0025 1.86283 45.778 2.19398C45.5682 2.50288 45.5548 2.89555 45.5468 3.26597C45.492 5.64686 45.5922 8.32356 44.4778 10.5068C43.9339 11.5212 43.3419 12.1901 42.7032 12.5107C42.4439 12.6469 42.194 12.7136 41.9522 12.7136C41.8693 12.7136 41.7958 12.7058 41.7317 12.6914C41.5045 12.656 41.3027 12.55 41.1504 12.3955C41.1504 12.4963 41.1678 12.6259 41.2012 12.7882C41.4257 13.584 42.0992 13.9806 43.2217 13.9806C44.2747 13.9806 45.3023 13.6599 46.3045 13.016C47.3054 12.3733 48.1005 11.4518 48.6871 10.2503C48.9049 11.122 49.3927 12.5893 50.5272 12.5683C50.9267 12.5605 51.3089 12.3812 51.6109 12.1259C52.2711 11.5683 52.6679 10.6887 52.9432 9.89555C53.018 9.6822 53.0835 9.45838 53.0595 9.23325C53.0541 9.18743 53.0448 9.1377 53.0087 9.10628C53.0033 9.10105 52.998 9.09712 52.9913 9.09319L52.994 9.09581Z" fill="#45474B"/>
</g>
<defs>
<clipPath id="clip0_961_6">
<rect width="36.8757" height="21.8469" fill="white"/>
</clipPath>
<clipPath id="clip1_961_6">
<rect width="89.1083" height="23" fill="white" transform="translate(40.8906)"/>
</clipPath>
</defs>
</svg>
