<svg width="50" height="50" viewBox="0 0 50 50" fill="none" xmlns="http://www.w3.org/2000/svg">
<circle cx="25" cy="25" r="25" fill="#45474B"/>
<g clip-path="url(#clip0_954_254)">
<path d="M25.5716 25.9471C25.5448 25.9471 25.4914 25.9873 25.4112 26.0678C25.2241 26.2557 24.9024 26.3496 24.448 26.3496C24.1272 26.3496 23.6585 26.1886 23.0438 25.8666C22.4281 25.5446 21.84 25.0684 21.2787 24.4369C20.7174 23.8064 20.3289 23.0475 20.1151 22.1621C20.1151 22.1621 19.7962 25.5859 18.791 27.9201C19.085 29.1284 19.5194 30.0943 20.095 30.8187C20.6697 31.5431 21.3045 31.9063 22.0004 31.9063C22.6963 31.9063 23.2843 31.5911 23.8456 30.9596C24.4069 30.3291 24.8547 29.5769 25.1897 28.7049C25.5238 27.8329 25.6909 27.0874 25.6909 26.4703C25.6909 26.1215 25.6508 25.9471 25.5706 25.9471H25.5716Z" fill="#FFD04D"/>
<path d="M19.1588 14.5996C18.6233 14.0094 17.9283 13.673 17.073 13.5925C16.7857 13.5696 16.5126 13.5667 16.2511 13.5811C15.4769 13.6069 14.6559 13.7804 14.0507 14.0889C13.1143 14.5661 12.3372 15.4084 12.0699 16.4279C11.9745 16.793 11.9439 17.1734 11.9401 17.551C11.9267 18.9318 12.2923 20.303 12.9491 21.5152C13.1734 19.6514 13.2069 18.0876 13.1553 17.5203C13.1419 17.3699 13.2527 17.2367 13.4025 17.2233C13.5534 17.2089 13.6851 17.321 13.6985 17.4714C13.8283 18.9126 13.645 20.4285 13.4617 21.8553C13.1248 24.4847 12.5673 27.4035 10.9483 29.5777C10.2562 30.5081 9.23475 31.2402 8.05391 31.3427C6.91506 31.6427 6.94275 32.2588 7.04203 32.5693C7.06494 32.6296 7.09167 32.6929 7.12508 32.758C7.72075 33.9386 8.83668 34.8441 10.1101 35.2255C10.7659 35.4219 11.4628 35.4813 12.1406 35.3826C12.5806 35.3184 13.8588 35.0971 13.8378 34.4742C13.8216 33.9941 12.5778 33.9309 12.2484 33.7843C12.153 33.7421 12.0527 33.6885 12.0069 33.5946C11.9592 33.4978 11.9831 33.377 12.0403 33.286C12.1463 33.1174 12.3277 33.0244 12.5004 32.942C13.2231 32.5942 13.9524 32.2751 14.6225 31.8343C15.8616 31.0189 16.8964 29.9207 17.7259 28.539C17.9341 28.1921 18.1307 27.828 18.313 27.4456C19.3182 25.1114 19.6371 21.6876 19.6371 21.6876L19.9177 16.3724C19.9444 15.7821 19.6905 15.1918 19.1559 14.6006L19.1588 14.5996Z" fill="#FFD04D"/>
<path d="M42.8802 25.9471C42.8534 25.9471 42.8 25.9873 42.7198 26.0678C42.5327 26.2557 42.211 26.3496 41.7566 26.3496C41.4358 26.3496 40.9671 26.1886 40.3524 25.8666C39.7366 25.5446 39.1486 25.0684 38.5873 24.4369C38.026 23.8064 37.6375 23.0475 37.4236 22.1621C37.4236 22.1621 37.1048 25.5859 36.0996 27.9201C36.3936 29.1284 36.828 30.0943 37.4036 30.8187C37.9783 31.5431 38.6131 31.9063 39.309 31.9063C40.0049 31.9063 40.5929 31.5911 41.1542 30.9596C41.7155 30.3291 42.1632 29.5769 42.4983 28.7049C42.8324 27.8329 42.9995 27.0874 42.9995 26.4703C42.9995 26.1215 42.9594 25.9471 42.8792 25.9471H42.8802Z" fill="#FFD04D"/>
<path d="M36.4694 14.5996C35.9338 14.0094 35.2389 13.673 34.3835 13.5925C34.0962 13.5696 33.8232 13.5667 33.5616 13.5811C32.7874 13.6069 31.9665 13.7804 31.3613 14.0889C30.4248 14.5661 29.6478 15.4084 29.3805 16.4279C29.285 16.793 29.2545 17.1734 29.2506 17.551C29.2373 18.9318 29.6029 20.303 30.2597 21.5152C30.484 19.6514 30.5174 18.0876 30.4659 17.5203C30.4525 17.3699 30.5632 17.2367 30.7131 17.2233C30.8639 17.2089 30.9957 17.321 31.009 17.4714C31.1388 18.9126 30.9556 20.4285 30.7723 21.8553C30.4353 24.4847 29.8778 27.4035 28.2588 29.5777C27.5667 30.5081 26.5453 31.2402 25.3645 31.3427C24.2256 31.6427 24.2533 32.2588 24.3526 32.5693C24.3755 32.6296 24.4022 32.6929 24.4356 32.758C25.0313 33.9386 26.1472 34.8441 27.4207 35.2255C28.0765 35.4219 28.7733 35.4813 29.4511 35.3826C29.8912 35.3184 31.1694 35.0971 31.1484 34.4742C31.1322 33.9941 29.8883 33.9309 29.559 33.7843C29.4635 33.7421 29.3633 33.6885 29.3175 33.5946C29.2697 33.4978 29.2936 33.377 29.3509 33.286C29.4568 33.1174 29.6382 33.0244 29.811 32.942C30.5336 32.5942 31.2629 32.2751 31.9331 31.8343C33.1722 31.0189 34.2069 29.9207 35.0365 28.539C35.2446 28.1921 35.4412 27.828 35.6236 27.4456C36.6288 25.1114 36.9476 21.6876 36.9476 21.6876L37.2283 16.3724C37.255 15.7821 37.0011 15.1918 36.4665 14.6006L36.4694 14.5996Z" fill="#FFD04D"/>
</g>
<defs>
<clipPath id="clip0_954_254">
<rect width="36" height="21.8571" fill="white" transform="translate(7 13.5723)"/>
</clipPath>
</defs>
</svg>
