<svg width="150" height="100" viewBox="0 0 150 100" fill="none" xmlns="http://www.w3.org/2000/svg">
<g clip-path="url(#clip0_939_1561)">
<path d="M36.3871 88.9826C36.2476 89.7013 35.665 90.2606 34.9339 90.3684C34.6775 90.4178 34.3716 90.4448 34.0139 90.4448H22.2853V84.7846C22.2853 84.2343 22.1098 83.7829 21.7612 83.4347L22.3708 83.1742C23.5337 82.6239 24.5955 81.8108 25.5537 80.7372C26.512 79.6636 27.3128 78.4305 27.9517 77.0357C28.2126 78.9224 28.8379 80.5193 29.8277 81.8243C30.8152 83.1315 31.9782 83.7829 33.3166 83.7829C34.3918 83.7829 35.2354 83.3629 35.845 82.5206C36.4546 81.6783 36.7605 80.6923 36.7605 79.5603C36.7605 79.01 36.702 78.545 36.585 78.1677C36.4681 77.7611 36.3803 77.559 36.3241 77.559L36.1936 77.7769C36.0767 77.9521 35.656 78.0374 34.9294 78.0374C34.1151 78.0082 33.2941 77.6825 32.4663 77.0581C31.6385 76.4337 30.9322 75.6588 30.3518 74.7289C29.7692 73.8013 29.407 72.8422 29.2608 71.8562C29.2901 71.7686 29.3036 71.6249 29.3036 71.4205L29.6095 66.1085C29.668 65.1224 29.3756 64.361 28.7367 63.822C28.0979 63.2852 27.1239 63.0156 25.8147 63.0156C24.9126 63.0156 24.1726 63.1976 23.59 63.5592C23.0074 63.923 22.7037 64.4374 22.6744 65.1045L22.3258 71.6361C22.2088 73.8709 21.8242 75.9822 21.1696 77.9723C20.515 79.9601 19.6939 81.4762 18.7064 82.5228C17.5435 82.5228 16.6504 82.7272 16.0251 83.1315C15.3997 83.5381 15.0871 84.1198 15.0871 84.8722V90.4448H2.31018C1.70058 90.4448 1.16072 90.7143 0.697329 91.2511C0.231693 91.7879 0 92.4775 0 93.3197C0 94.162 0.240691 94.91 0.719824 95.476C1.19896 96.042 1.75907 96.325 2.39791 96.325H33.4875C34.9699 96.325 35.9799 95.9926 36.5176 95.3232C37.0552 94.6562 37.3251 93.6117 37.3251 92.1877C37.3251 91.2309 37.2081 90.447 36.9764 89.8361C36.819 89.4677 36.621 89.1847 36.3848 88.9826H36.3871Z" fill="white"/>
<path d="M111.253 61.0452C110.542 60.7442 109.637 60.5938 108.544 60.5938C107.451 60.5938 106.506 60.7308 105.793 61.0025C105.246 61.1935 104.767 61.454 104.356 61.7819C104.344 61.7909 104.335 61.7999 104.324 61.8089C104.506 61.7258 104.709 61.6809 104.92 61.6809C105.384 61.6809 105.827 61.9077 106.099 62.2828C106.439 62.7522 106.43 63.3811 106.461 63.9337C106.578 66.0113 106.49 68.0912 106.49 70.171V96.2121C106.49 96.9488 106.792 97.5777 107.392 98.0966C107.993 98.6154 108.843 98.8759 109.937 98.8759C111.03 98.8759 111.86 98.6221 112.42 98.1168C112.98 97.6114 113.261 97.0027 113.261 96.293V65.8406C113.261 64.448 113.138 63.3879 112.892 62.6646C112.645 61.9414 112.098 61.4001 111.25 61.0452H111.253Z" fill="white"/>
<path d="M98.4886 63.4516C97.654 63.2606 96.9342 63.1641 96.3336 63.1641H84.0606C83.1586 63.1641 82.4523 63.3887 81.9461 63.8401C81.44 64.2916 81.1858 64.9677 81.1858 65.8683C81.1858 66.769 81.431 67.4676 81.9236 67.9594C82.4163 68.4513 83.1271 68.6962 84.0584 68.6962H93.4588C93.9514 68.6962 94.3136 68.813 94.5476 69.0443C94.7792 69.2779 94.8962 69.6665 94.8962 70.2123C94.8962 73.1367 94.4576 75.8342 93.5825 78.3071C92.7075 80.7801 91.558 82.9116 90.1341 84.7017C88.7102 86.4918 87.1379 87.8912 85.4148 88.9019C84.2136 89.6072 82.9516 90.1417 81.5367 90.1777C81.1723 90.1867 80.8574 90.1507 80.547 89.9441C80.5312 89.9329 80.5155 89.9216 80.4997 89.9104C80.2725 89.7397 80.0993 89.5016 80.0139 89.2231C79.9734 89.4028 79.9531 89.5959 79.9531 89.8048C79.9531 90.0249 79.9666 90.1889 79.9936 90.2967C80.0768 90.6808 80.2658 91.0199 80.5672 91.3209C80.8687 91.6219 81.2646 91.8532 81.7572 92.0172C82.3038 92.2081 82.9336 92.3047 83.6445 92.3047C84.5735 92.3047 85.669 92.1273 86.9287 91.7724C89.7742 90.9256 92.2914 89.4634 94.4823 87.3858C96.671 85.3104 98.4076 82.687 99.6943 79.5178C100.981 76.3486 101.692 72.7413 101.829 68.6984C101.91 66.9218 101.474 65.5427 100.515 64.5589C99.9957 64.0131 99.3186 63.6447 98.4841 63.4516H98.4886Z" fill="white"/>
<path d="M135.217 63.5453C134.383 63.3544 133.663 63.2578 133.062 63.2578H120.789C119.887 63.2578 119.181 63.4824 118.675 63.9339C118.169 64.3853 117.914 65.0614 117.914 65.9621C117.914 66.8628 118.162 67.5613 118.652 68.0532C119.145 68.5451 119.856 68.7899 120.787 68.7899H130.187C130.68 68.7899 131.042 68.9067 131.276 69.138C131.508 69.3716 131.625 69.7602 131.625 70.306C131.625 73.2304 131.186 75.9279 130.311 78.4009C129.436 80.8738 128.287 83.0053 126.863 84.7955C125.439 86.5856 123.866 87.9849 122.143 88.9956C121.54 89.3797 120.897 89.6852 120.213 89.9188C119.561 90.1389 118.877 90.2737 118.187 90.2579C117.581 90.2422 117.035 90.0513 116.709 89.51C116.693 89.6335 116.682 89.7638 116.682 89.9008C116.682 90.1209 116.695 90.2849 116.722 90.3927C116.805 90.7768 116.994 91.1159 117.296 91.4169C117.597 91.7179 117.993 91.9492 118.486 92.1132C119.032 92.3041 119.662 92.4007 120.373 92.4007C121.302 92.4007 122.397 92.2233 123.657 91.8684C126.503 91.0216 129.02 89.5594 131.211 87.4818C133.4 85.4064 135.138 82.783 136.423 79.6138C137.709 76.4445 138.42 72.8373 138.558 68.7944C138.639 67.0177 138.202 65.6387 137.244 64.6549C136.724 64.1091 136.047 63.7407 135.213 63.5476L135.217 63.5453Z" fill="white"/>
<path d="M149.632 62.6646C149.384 61.9414 148.838 61.4001 147.989 61.0452C147.279 60.7442 146.374 60.5938 145.281 60.5938C144.188 60.5938 143.243 60.7308 142.53 61.0025C141.983 61.1935 141.504 61.454 141.093 61.7819C141.027 61.8336 140.967 61.8875 140.908 61.9414C141.117 61.8358 141.351 61.7752 141.601 61.7752C141.956 61.7752 142.28 61.8965 142.539 62.0986C142.755 62.2087 142.908 62.4041 143 62.6849C143 62.6871 143 62.6893 143 62.6916C143.072 62.8556 143.115 63.033 143.124 63.2194C143.189 63.6057 143.223 64.0684 143.223 64.6097V96.2099C143.223 96.9466 143.524 97.5755 144.125 98.0943C144.726 98.6132 145.576 98.8737 146.669 98.8737C147.762 98.8737 148.592 98.6199 149.152 98.1145C149.713 97.6092 149.994 97.0005 149.994 96.2907V65.8383C149.994 64.4458 149.87 63.3856 149.625 62.6624L149.632 62.6646Z" fill="white"/>
<path d="M49.3291 81.843C51.1894 81.7351 52.845 81.679 54.2959 81.679C54.8965 81.679 55.7176 81.7329 56.7591 81.843L57.868 81.9261C58.1695 81.9261 58.4349 81.8295 58.6688 81.6386C58.9005 81.4476 59.0445 81.1736 59.1007 80.8187C59.1547 80.383 59.1817 79.9989 59.1817 79.671C59.1817 78.5232 58.9905 77.663 58.6081 77.088C58.1695 76.4321 57.4721 76.1042 56.5139 76.1042C55.884 76.1042 54.8583 76.2143 53.4344 76.4321C53.1869 76.4591 52.7573 76.5152 52.1409 76.5961C51.5246 76.677 51.0387 76.7196 50.6833 76.7196C49.9162 76.7196 49.4101 76.5422 49.1649 76.1873C48.9197 75.8324 48.796 75.217 48.796 74.3433V68.7281H54.6648C55.9785 68.7281 56.8603 68.4473 57.3124 67.8881C57.7646 67.3288 57.9895 66.5292 57.9895 65.4915C57.9895 64.7548 57.8118 64.0428 57.4564 63.36C57.3192 63.1151 57.1752 62.9018 57.0245 62.7243C56.8738 62.5469 56.7568 62.457 56.6758 62.457C56.6488 62.457 56.6353 62.484 56.6353 62.5379C56.6353 62.5648 56.6421 62.6143 56.6556 62.6816C56.6691 62.749 56.6623 62.8119 56.6353 62.8658C56.6083 63.1129 56.4306 63.2342 56.1022 63.2342C55.5826 63.2611 54.5433 63.2746 52.9822 63.2746H45.4713C44.4051 63.2746 43.5548 63.5621 42.9272 64.1349C42.2973 64.7076 41.9824 65.4466 41.9824 66.3472V74.5028C41.9824 76.4703 42.1466 77.8988 42.4751 78.786C42.8035 79.6732 43.3366 80.3785 44.0767 80.8974C44.9787 81.5532 46.3059 81.8811 48.0582 81.8811C48.6048 81.8811 49.0299 81.8677 49.3314 81.8407L49.3291 81.843Z" fill="white"/>
<path d="M74.6546 60.9808C73.9708 60.6798 73.1227 60.5293 72.1105 60.5293C71.0442 60.5293 70.1804 60.6663 69.5236 60.9381C69.0962 61.0953 68.7183 61.2997 68.3854 61.549C68.4889 61.5243 68.5946 61.5108 68.7048 61.5108C69.0894 61.5108 69.4629 61.677 69.7193 61.9623C70.0365 62.3149 70.0612 62.7417 70.086 63.1909C70.1062 63.5548 70.1264 63.9186 70.1354 64.2847C70.1557 65.127 70.1399 65.9716 70.1399 66.8138V69.0127H67.2674V66.7577C67.2674 65.3651 67.1504 64.305 66.9187 63.5817C66.687 62.8585 66.1719 62.3172 65.3801 61.9623C64.6963 61.6613 63.8482 61.5108 62.836 61.5108C61.7697 61.5108 60.906 61.6478 60.2491 61.9196C59.8622 62.0611 59.5158 62.2408 59.2031 62.4587C59.2459 62.4542 59.2909 62.4519 59.3358 62.4519C60.0107 62.4519 60.5708 62.9416 60.681 63.5862C60.8025 64.0377 60.8632 64.6845 60.8632 65.5268V80.9776C60.8632 81.6874 61.1309 82.3095 61.664 82.8419C62.1971 83.3742 62.971 83.6415 63.9832 83.6415C65.0494 83.6415 65.8637 83.3899 66.4261 82.8823C66.9862 82.3769 67.2674 81.7705 67.2674 81.0585V74.172H70.1399V83.5988C70.1399 84.3086 70.4144 84.9307 70.961 85.463C71.5076 85.9954 72.2882 86.2626 73.3004 86.2626C74.3667 86.2626 75.1742 86.0111 75.7231 85.5035C76.2697 84.9981 76.5441 84.3894 76.5441 83.6797V65.7694C76.5441 64.3768 76.4272 63.3167 76.1955 62.5934C75.9638 61.8702 75.4486 61.3289 74.6568 60.974L74.6546 60.9808Z" fill="white"/>
<path d="M72.9096 88.4622C67.9024 85.9084 61.7951 87.1236 56.6574 88.6374C55.5439 88.9653 54.3314 89.4348 53.8321 90.4814C56.3942 88.9676 59.4085 88.3701 62.3845 88.2219C64.1165 88.1343 65.8801 88.1949 67.5312 88.7273C68.2893 88.9721 69.0383 89.3292 69.5715 89.9222C70.1046 90.5151 70.3835 91.3799 70.1203 92.1323C69.8976 92.768 69.3375 93.2239 68.7527 93.5563C67.565 94.2302 66.1973 94.5244 64.8409 94.6771C62.7084 94.9152 60.5512 94.8231 58.412 94.6524C57.2265 94.5581 55.9511 94.4795 54.8398 94.0145C53.9963 93.6619 53.2337 93.0577 52.8333 92.2379C52.4554 91.4652 52.4689 90.5825 52.8671 89.8256C53.2877 89.0237 54.0593 88.5251 54.8466 88.1118C55.9713 87.5234 57.2085 87.1842 58.4389 86.8922C59.9011 86.5441 61.3902 86.3105 62.8839 86.151C62.9491 86.1443 63.8556 86.0073 63.8781 86.0612C63.7499 85.7512 63.462 85.4929 63.1515 85.3357C62.6589 85.0864 62.101 85.0055 61.5522 84.9471C57.6021 84.5204 52.5364 84.7405 49.187 87.0944C47.2029 88.4869 46.2109 90.2366 46.2109 92.3412C46.2109 93.7338 46.7171 95.0051 47.7293 96.1528C48.7416 97.3005 50.3567 98.2282 52.5724 98.9402C54.7881 99.6499 57.6201 100.005 61.0686 100.005C66.0488 100.005 69.7559 99.3625 72.1921 98.0777C74.6282 96.7929 75.8452 95.0298 75.8452 92.7904C75.8452 90.906 74.8667 89.464 72.9096 88.4667V88.4622Z" fill="white"/>
<path d="M20.3724 76.1374C20.134 75.9779 19.7088 76.2834 19.4951 76.3463C19.2589 76.4182 19.0025 76.389 18.7618 76.3328C17.1624 75.9577 15.7475 74.527 15.0142 73.1097C14.8185 72.7323 14.6588 72.3348 14.5981 71.9148C14.5418 71.5262 14.5711 71.1309 14.5981 70.7401C14.6678 69.8237 14.7375 68.9073 14.8073 67.9909C14.895 66.8162 14.9625 65.5471 14.3169 64.5611C13.876 63.885 13.1382 63.4336 12.3531 63.2426C11.5681 63.0517 10.7403 63.1056 9.95297 63.2898C9.28713 63.4448 8.6033 63.7255 8.22539 64.2938C7.87223 64.8239 7.84973 65.4977 7.83623 66.1333C7.74401 70.219 7.91271 74.8122 6.03667 78.5587C5.12115 80.2994 4.12464 81.4471 3.04941 81.9974C2.61301 82.231 2.19237 82.3456 1.78522 82.3456C1.64575 82.3456 1.52203 82.3321 1.41406 82.3074C1.03165 82.2467 0.691984 82.0648 0.435547 81.7998C0.435547 81.9727 0.46479 82.1951 0.521026 82.4736C0.898933 83.8392 2.03266 84.5198 3.92219 84.5198C5.69476 84.5198 7.42458 83.9695 9.11167 82.8644C10.7965 81.7616 12.1349 80.1803 13.1224 78.1184C13.4891 79.6143 14.3101 82.1322 16.2199 82.0962C16.8925 82.0828 17.5359 81.7751 18.0442 81.3371C19.1555 80.3802 19.8235 78.8709 20.2869 77.5097C20.4129 77.1436 20.5231 76.7596 20.4826 76.3732C20.4736 76.2946 20.4579 76.2093 20.3972 76.1554C20.3882 76.1464 20.3792 76.1396 20.3679 76.1329L20.3724 76.1374Z" fill="white"/>
<path d="M76.345 29.0087C76.282 29.0087 76.1561 29.1031 75.9671 29.2917C75.5262 29.732 74.7682 29.9521 73.6974 29.9521C72.9416 29.9521 71.8371 29.5747 70.3885 28.8201C68.9376 28.0654 67.5519 26.9491 66.2293 25.4689C64.9066 23.991 63.991 22.2121 63.4872 20.1367C63.4872 20.1367 62.7359 28.162 60.3672 33.6334C61.06 36.4657 62.0835 38.7298 63.4399 40.4278C64.7941 42.1258 66.29 42.9771 67.9298 42.9771C69.5697 42.9771 70.9553 42.2382 72.278 40.758C73.6007 39.2801 74.6557 37.5169 75.4452 35.473C76.2326 33.429 76.6262 31.6816 76.6262 30.2351C76.6262 29.4175 76.5317 29.0087 76.3428 29.0087H76.345Z" fill="white"/>
<path d="M61.236 2.40818C59.974 1.02459 58.3364 0.236217 56.3209 0.0475463C55.6438 -0.00635964 55.0005 -0.0130979 54.3841 0.0205933C52.5598 0.0812375 50.6253 0.487778 49.1992 1.21102C46.9925 2.32956 45.1614 4.30387 44.5316 6.6937C44.3066 7.54946 44.2346 8.44115 44.2256 9.32611C44.1941 12.5627 45.0557 15.7768 46.6033 18.6181C47.1319 14.2495 47.2107 10.5839 47.0892 9.25423C47.0577 8.9016 47.3186 8.58939 47.6718 8.55795C48.0272 8.52425 48.3376 8.78705 48.3691 9.13968C48.675 12.5178 48.2432 16.0711 47.8113 19.4155C47.0172 25.5787 45.7035 32.4203 41.8885 37.5167C40.2576 39.6976 37.8507 41.4136 35.0681 41.6539C32.3845 42.357 32.4498 43.8012 32.6837 44.5289C32.7377 44.6704 32.8007 44.8187 32.8794 44.9714C34.2831 47.7386 36.9127 49.8611 39.9134 50.7551C41.4588 51.2155 43.1009 51.3548 44.698 51.1234C45.735 50.9729 48.747 50.4541 48.6975 48.9941C48.6593 47.8688 45.7283 47.7206 44.9522 47.377C44.7273 47.2781 44.4911 47.1523 44.3831 46.9322C44.2706 46.7054 44.3269 46.4224 44.4618 46.209C44.7115 45.8137 45.1389 45.5958 45.5461 45.4027C47.2489 44.5873 48.9675 43.8394 50.5466 42.8062C53.4664 40.8948 55.9048 38.3208 57.8595 35.0819C58.3499 34.2688 58.8133 33.4153 59.243 32.5191C61.6116 27.0477 62.3629 19.0224 62.3629 19.0224L63.0243 6.56343C63.0873 5.17984 62.4889 3.79625 61.2292 2.41042L61.236 2.40818Z" fill="white"/>
<path d="M117.132 29.0087C117.069 29.0087 116.943 29.1031 116.754 29.2917C116.313 29.732 115.555 29.9521 114.485 29.9521C113.729 29.9521 112.624 29.5747 111.176 28.8201C109.725 28.0654 108.339 26.9491 107.016 25.4689C105.694 23.991 104.778 22.2121 104.274 20.1367C104.274 20.1367 103.523 28.162 101.154 33.6334C101.847 36.4657 102.871 38.7298 104.227 40.4278C105.581 42.1258 107.077 42.9771 108.717 42.9771C110.357 42.9771 111.742 42.2382 113.065 40.758C114.388 39.2801 115.443 37.5169 116.232 35.473C117.02 33.429 117.413 31.6816 117.413 30.2351C117.413 29.4175 117.319 29.0087 117.13 29.0087H117.132Z" fill="white"/>
<path d="M102.023 2.40818C100.761 1.02459 99.1235 0.236217 97.108 0.0475463C96.431 -0.00635964 95.7876 -0.0130979 95.1713 0.0205933C93.347 0.0812375 91.4124 0.487778 89.9863 1.21102C87.7796 2.32956 85.9485 4.30387 85.3187 6.6937C85.0937 7.54946 85.0217 8.44115 85.0127 9.32611C84.9813 12.5627 85.8428 15.7768 87.3904 18.6181C87.919 14.2495 87.9978 10.5839 87.8763 9.25423C87.8448 8.9016 88.1057 8.58939 88.4589 8.55795C88.8143 8.52425 89.1247 8.78705 89.1562 9.13968C89.4622 12.5178 89.0303 16.0711 88.5984 19.4155C87.8043 25.5787 86.4906 32.4203 82.6756 37.5167C81.0447 39.6976 78.6378 41.4136 75.8552 41.6539C73.1716 42.357 73.2369 43.8012 73.4708 44.5289C73.5248 44.6704 73.5878 44.8187 73.6665 44.9714C75.0702 47.7386 77.6998 49.8611 80.7006 50.7551C82.2459 51.2155 83.888 51.3548 85.4851 51.1234C86.5221 50.9729 89.5341 50.4541 89.4846 48.9941C89.4464 47.8688 86.5154 47.7206 85.7393 47.377C85.5144 47.2781 85.2782 47.1523 85.1702 46.9322C85.0577 46.7054 85.114 46.4224 85.2489 46.209C85.4986 45.8137 85.926 45.5958 86.3332 45.4027C88.036 44.5873 89.7546 43.8394 91.3337 42.8062C94.2535 40.8948 96.6919 38.3208 98.6467 35.0819C99.137 34.2688 99.6004 33.4153 100.03 32.5191C102.399 27.0477 103.15 19.0224 103.15 19.0224L103.811 6.56343C103.874 5.17984 103.276 3.79625 102.016 2.41042L102.023 2.40818Z" fill="white"/>
</g>
<defs>
<clipPath id="clip0_939_1561">
<rect width="150" height="100" fill="white"/>
</clipPath>
</defs>
</svg>
