<svg width="28" height="17" viewBox="0 0 28 17" fill="none" xmlns="http://www.w3.org/2000/svg">
<g id="_?&#235;&#141;&#137;&#236;&#148;&#160;??1" clip-path="url(#clip0_954_325)">
<path id="Vector" d="M14.4437 9.62552C14.4229 9.62552 14.3813 9.65683 14.3189 9.71943C14.1734 9.86551 13.9232 9.93855 13.5698 9.93855C13.3203 9.93855 12.9558 9.81334 12.4776 9.56292C11.9987 9.3125 11.5414 8.9421 11.1048 8.45095C10.6682 7.96055 10.366 7.37029 10.1997 6.68164C10.1997 6.68164 9.95174 9.34455 9.16992 11.1601C9.3986 12.0999 9.73643 12.8511 10.1841 13.4146C10.6311 13.978 11.1248 14.2605 11.6661 14.2605C12.2074 14.2605 12.6647 14.0153 13.1013 13.5241C13.5379 13.0337 13.8861 12.4487 14.1467 11.7705C14.4066 11.0922 14.5365 10.5124 14.5365 10.0325C14.5365 9.76117 14.5053 9.62552 14.4429 9.62552H14.4437Z" fill="#FFD04D"/>
<path id="Vector_2" d="M9.45837 0.799073C9.04184 0.339977 8.50133 0.0783808 7.83607 0.0157767C7.61259 -0.00211023 7.40024 -0.0043461 7.19681 0.00683321C6.59466 0.026956 5.95614 0.161853 5.48542 0.401835C4.75705 0.772988 4.15268 1.4281 3.94479 2.22108C3.87055 2.50504 3.84679 2.80091 3.84382 3.09456C3.83342 4.16852 4.11779 5.23502 4.62861 6.17781C4.80309 4.72823 4.82907 3.51192 4.78898 3.07071C4.77858 2.9537 4.86471 2.8501 4.98128 2.83967C5.09859 2.82849 5.20105 2.91569 5.21144 3.0327C5.31242 4.15361 5.16987 5.33265 5.02731 6.44239C4.76522 8.48746 4.33162 10.7576 3.07239 12.4487C2.5341 13.1723 1.73966 13.7417 0.821224 13.8215C-0.0645415 14.0547 -0.0430099 14.534 0.0342069 14.7754C0.0520262 14.8224 0.0728153 14.8716 0.0988018 14.9223C0.562102 15.8405 1.43005 16.5448 2.4205 16.8414C2.93058 16.9942 3.47258 17.0404 3.99974 16.9636C4.34201 16.9137 5.33618 16.7415 5.31985 16.2571C5.30722 15.8837 4.33979 15.8345 4.08363 15.7205C4.00939 15.6877 3.93143 15.6459 3.89579 15.5729C3.85867 15.4976 3.87723 15.4037 3.92178 15.3329C4.00419 15.2017 4.14526 15.1295 4.27965 15.0654C4.8417 14.7948 5.40894 14.5466 5.93015 14.2038C6.89388 13.5696 7.69872 12.7155 8.34392 11.6408C8.50578 11.371 8.65873 11.0878 8.80054 10.7904C9.58236 8.97487 9.83035 6.31196 9.83035 6.31196L10.0486 2.17785C10.0694 1.71876 9.87192 1.25966 9.45614 0.799819L9.45837 0.799073Z" fill="#FFD04D"/>
<path id="Vector_3" d="M27.9066 9.62552C27.8858 9.62552 27.8442 9.65683 27.7818 9.71943C27.6363 9.86551 27.3861 9.93855 27.0327 9.93855C26.7832 9.93855 26.4187 9.81334 25.9405 9.56292C25.4616 9.3125 25.0043 8.9421 24.5677 8.45095C24.1311 7.96055 23.8289 7.37029 23.6626 6.68164C23.6626 6.68164 23.4146 9.34455 22.6328 11.1601C22.8615 12.0999 23.1993 12.8511 23.647 13.4146C24.094 13.978 24.5877 14.2605 25.129 14.2605C25.6703 14.2605 26.1276 14.0153 26.5642 13.5241C27.0008 13.0337 27.349 12.4487 27.6096 11.7705C27.8694 11.0922 27.9994 10.5124 27.9994 10.0325C27.9994 9.76117 27.9682 9.62552 27.9058 9.62552H27.9066Z" fill="#FFD04D"/>
<path id="Vector_4" d="M22.9193 0.799073C22.5028 0.339977 21.9623 0.0783808 21.297 0.0157767C21.0735 -0.00211023 20.8612 -0.0043461 20.6577 0.00683321C20.0556 0.026956 19.4171 0.161853 18.9464 0.401835C18.218 0.772988 17.6136 1.4281 17.4057 2.22108C17.3315 2.50504 17.3077 2.80091 17.3048 3.09456C17.2944 4.16852 17.5787 5.23502 18.0895 6.17781C18.264 4.72823 18.29 3.51192 18.2499 3.07071C18.2395 2.9537 18.3256 2.8501 18.4422 2.83967C18.5595 2.82849 18.662 2.91569 18.6724 3.0327C18.7734 4.15361 18.6308 5.33265 18.4882 6.44239C18.2262 8.48746 17.7926 10.7576 16.5333 12.4487C15.995 13.1723 15.2006 13.7417 14.2822 13.8215C13.3964 14.0547 13.4179 14.534 13.4951 14.7754C13.513 14.8224 13.5338 14.8716 13.5597 14.9223C14.023 15.8405 14.891 16.5448 15.8814 16.8414C16.3915 16.9942 16.9335 17.0404 17.4607 16.9636C17.8029 16.9137 18.7971 16.7415 18.7808 16.2571C18.7682 15.8837 17.8007 15.8345 17.5446 15.7205C17.4703 15.6877 17.3924 15.6459 17.3567 15.5729C17.3196 15.4976 17.3382 15.4037 17.3827 15.3329C17.4651 15.2017 17.6062 15.1295 17.7406 15.0654C18.3026 14.7948 18.8699 14.5466 19.3911 14.2038C20.3548 13.5696 21.1597 12.7155 21.8049 11.6408C21.9667 11.371 22.1197 11.0878 22.2615 10.7904C23.0433 8.97487 23.2913 6.31196 23.2913 6.31196L23.5096 2.17785C23.5304 1.71876 23.3329 1.25966 22.9171 0.799819L22.9193 0.799073Z" fill="#FFD04D"/>
</g>
<defs>
<clipPath id="clip0_954_325">
<rect width="28" height="17" fill="white"/>
</clipPath>
</defs>
</svg>
